<svg width="800" height="800" viewBox="0 0 800 800" fill="none" xmlns="http://www.w3.org/2000/svg">
<path d="M441.162 61.9141H64.7703C46.9719 61.8656 30.5906 69.1891 18.9688 80.8594C7.275 92.5047 0 108.863 0 126.661V336.28C0 354.102 7.275 370.459 18.9703 382.081C30.5922 393.775 46.9734 401.075 64.7719 401.075H441.164C458.938 401.075 475.319 393.775 486.966 382.081C498.636 370.459 505.959 354.103 505.936 336.28V126.661C505.961 108.863 498.636 92.5062 486.966 80.8594C475.317 69.1891 458.936 61.8656 441.162 61.9141Z" fill="#E1CA4C"/>
<path d="M766.114 69.5797C755.225 62.9875 742.677 59.5703 730.347 59.5703C718.994 59.5703 707.788 62.3297 697.436 67.8219L559.57 141.333V150.342V236.378V294.875V323.756L697.436 397.242C707.788 402.759 718.994 405.519 730.347 405.519C742.677 405.519 755.225 402.198 766.211 395.583C787.134 382.959 800 360.255 800 335.742V129.297C800 104.786 787.134 82.1297 766.114 69.5797Z" fill="#E1CA4C"/>
<path d="M346.094 509.619H385.669V460.156H128.028V509.619H163.624L90.0877 671.314C86.083 680.128 89.9892 690.528 98.8033 694.531L123.169 705.616C131.983 709.62 142.383 705.714 146.386 696.923L221.508 531.616V722.9C221.508 732.569 229.345 740.43 239.038 740.43H270.678C280.322 740.43 288.183 732.569 288.183 722.9V531.641L363.281 696.923C367.31 705.713 377.71 709.619 386.499 705.616L410.864 694.531C419.678 690.527 423.585 680.127 419.58 671.314L346.094 509.619Z" fill="#E1CA4C"/>
</svg>
