<svg width="225" height="48" viewBox="0 0 225 48" fill="none" xmlns="http://www.w3.org/2000/svg">
<path d="M43.268 37V18.82H47.984L48.344 21.088C51.692 19.612 55.58 18.352 59.54 18.352C63.392 18.352 66.2 19.288 67.82 21.448C71.492 19.828 75.848 18.352 80.24 18.352C86.504 18.352 90.032 20.836 90.032 27.028V37H84.668V27.82C84.668 24.58 82.76 22.888 78.512 22.888C75.812 22.888 72.752 23.536 69.116 24.652C69.26 25.372 69.332 26.164 69.332 27.028V37H63.968V27.82C63.968 24.58 62.06 22.888 57.812 22.888C55.148 22.888 52.196 23.572 48.632 24.76V37H43.268ZM93.4543 27.892C93.4543 21.268 98.4943 18.316 109.15 18.316C119.842 18.316 124.882 21.268 124.882 27.892C124.882 34.48 119.842 37.432 109.15 37.432C98.4943 37.432 93.4543 34.48 93.4543 27.892ZM98.8183 27.892C98.8183 31.456 101.266 32.896 109.15 32.896C117.07 32.896 119.518 31.456 119.518 27.892C119.518 24.328 117.07 22.888 109.15 22.888C101.266 22.888 98.8183 24.328 98.8183 27.892ZM158.044 18.82L144.256 37H137.596L124.852 18.82H131.224L140.98 32.752L151.744 18.82H158.044ZM191.548 18.82L177.76 37H171.1L158.356 18.82H164.728L174.484 32.752L185.248 18.82H191.548ZM193.588 26.668V18.82H198.952V25.876C198.952 29.404 200.824 30.772 206.332 30.772C209.86 30.772 213.46 30.232 217.132 29.368V18.82H222.532V33.4C222.532 41.392 218.032 43.984 207.88 43.984C203.38 43.984 198.376 43.3 194.884 42.328L195.892 38.152C199.816 39.16 203.884 39.772 208.204 39.772C215.188 39.772 217.6 38.188 217.384 33.724L217.276 33.04C213.712 34.264 209.392 35.236 205.072 35.236C196.792 35.236 193.588 32.608 193.588 26.668Z" fill="#4A4A4A"/>
<path d="M16.5436 15.0879H2.42889C1.76145 15.0861 1.14715 15.3607 0.711328 15.7983C0.272813 16.235 0 16.8485 0 17.5159V25.3766C0 26.0449 0.272812 26.6583 0.711387 27.0942C1.14721 27.5327 1.7615 27.8064 2.42895 27.8064H16.5437C17.2102 27.8064 17.8245 27.5327 18.2612 27.0942C18.6988 26.6583 18.9735 26.045 18.9726 25.3766V17.5159C18.9735 16.8485 18.6988 16.2351 18.2612 15.7983C17.8244 15.3607 17.2101 15.0861 16.5436 15.0879Z" fill="#E1CA4C"/>
<path d="M28.7293 15.3754C28.3209 15.1281 27.8504 15 27.388 15C26.9623 15 26.542 15.1035 26.1538 15.3094L20.9839 18.0661V18.4039V21.6303V23.8239V24.907L26.1538 27.6627C26.542 27.8696 26.9623 27.9731 27.388 27.9731C27.8504 27.9731 28.3209 27.8486 28.7329 27.6005C29.5175 27.1271 30 26.2757 30 25.3564V17.6147C30 16.6956 29.5175 15.846 28.7293 15.3754Z" fill="#E1CA4C"/>
<path d="M12.9786 31.8768H14.4626V30.022H4.8011V31.8768H6.13592L3.37832 37.9404C3.22815 38.2709 3.37463 38.6609 3.70516 38.811L4.61887 39.2267C4.9494 39.3769 5.3394 39.2304 5.48952 38.9007L8.30659 32.7017V39.8749C8.30659 40.2374 8.60049 40.5322 8.96395 40.5322H10.1505C10.5121 40.5322 10.8069 40.2374 10.8069 39.8749V32.7026L13.6231 38.9007C13.7741 39.2303 14.1641 39.3768 14.4937 39.2267L15.4074 38.811C15.738 38.6609 15.8845 38.2709 15.7343 37.9404L12.9786 31.8768Z" fill="#E1CA4C"/>
</svg>
